<?xml version="1.0" encoding="UTF-8" standalone="no"?>
<svg
   xmlns:dc="http://purl.org/dc/elements/1.1/"
   xmlns:cc="http://creativecommons.org/ns#"
   xmlns:rdf="http://www.w3.org/1999/02/22-rdf-syntax-ns#"
   xmlns:svg="http://www.w3.org/2000/svg"
   xmlns="http://www.w3.org/2000/svg"
   xmlns:sodipodi="http://sodipodi.sourceforge.net/DTD/sodipodi-0.dtd"
   xmlns:inkscape="http://www.inkscape.org/namespaces/inkscape"
   viewBox="0 0 258.81451 246.45488"
   height="246.45488"
   width="258.81451"
   id="svg2"
   version="1.1"
   sodipodi:docname="wikdict-inkscape.svg"
   inkscape:version="0.92.4 (5da689c313, 2019-01-14)">
  <sodipodi:namedview
     pagecolor="#ffffff"
     bordercolor="#666666"
     borderopacity="1"
     objecttolerance="10"
     gridtolerance="10"
     guidetolerance="10"
     inkscape:pageopacity="0"
     inkscape:pageshadow="2"
     inkscape:window-width="3838"
     inkscape:window-height="2124"
     id="namedview6"
     showgrid="false"
     inkscape:pagecheckerboard="true"
     inkscape:zoom="7.5835382"
     inkscape:cx="92.089576"
     inkscape:cy="131.27562"
     inkscape:window-x="0"
     inkscape:window-y="34"
     inkscape:window-maximized="0"
     inkscape:current-layer="svg2" />
  <metadata
     id="metadata8">
    <rdf:RDF>
      <cc:Work
         rdf:about="">
        <dc:format>image/svg+xml</dc:format>
        <dc:type
           rdf:resource="http://purl.org/dc/dcmitype/StillImage" />
        <dc:title></dc:title>
      </cc:Work>
    </rdf:RDF>
  </metadata>
  <defs
     id="defs6" />
  <path
     id="path4527"
     style="fill:#000000;fill-opacity:1"
     d="m 231.45544,178.50549 c 4.15735,0 8.95402,-0.61527 10.73393,-1.37684 3.89148,-1.66505 8.20685,-6.10736 9.65426,-9.93826 0.71581,-1.89455 1.06362,-26.51453 1.06362,-75.28984 0,-69.14429 -0.087,-72.64523 -1.89359,-76.1849 -2.41686,-4.73542 -5.01087,-7.0568197 -9.79021,-8.7613497 -5.65458,-2.01667 -217.977816,-2.01667 -223.632396,0 -4.77934,1.70453 -7.37335,4.0259297 -9.7902102,8.7613497 -1.80657,3.53967 -1.89359,7.04061 -1.89359,76.1849 0,48.77531 0.34781,73.39529 1.06362,75.28984 1.16894,3.09387 5.3108602,7.83219 8.4363802,9.65116 1.45393,0.84615 23.28596,1.30046 79.96123,1.66394 l 77.961236,0.5 25.03876,26.63779 25.03877,26.6378 0.26607,-26.8878 0.26607,-26.88779 z m -31.91668,36.97309 -28.86848,-30.9256 -77.131516,-0.27375 c -85.4356602,-0.30321 -79.54055,0.16338 -86.5545902,-6.85066 -7.00064001,-7.00065 -6.54662001,-1.47867 -6.85917001,-83.42308 -0.31424,-82.389 -0.58563,-78.7664 6.48719001,-86.5951697 7.1187202,-7.87956996 -0.75393,-7.40482996 122.7950562,-7.40482996 123.54899,0 115.67634,-0.47474 122.79506,7.40482996 7.07282,7.8287697 6.80143,4.2061697 6.48719,86.5951697 -0.31255,81.94441 0.14147,76.42243 -6.85917,83.42308 -4.53608,4.53608 -8.50248,6.27346 -15.62789,6.84542 l -6.29519,0.50532 v 30.86309 c 0,16.9747 -0.3375,30.8403 -0.75,30.81244 -0.4125,-0.0279 -13.74082,-13.96717 -29.61849,-30.97626 z"
     inkscape:label="Bubble" />
  <path
     id="path817"
     style="fill:#000000"
     d="m 91.418284,155.25549 c -0.2344,-0.6875 -1.15005,-4.175 -2.03477,-7.75 -1.94495,-7.85924 -18.83479,-66.62136 -25.14741,-87.49138 -6.6959,-22.13717 -8.3652,-24.6951 -17.01712,-26.07602 -3.88649,-0.62031 -5.9856,-2.53324 -4.83057,-4.40212 0.70846,-1.1463 48.3942,-1.04117 49.10459,0.10826 1.09689,1.77481 -1.595,3.59068 -6.27354,4.23195 -5.95684,0.81647 -8.31221,2.93333 -8.31221,7.47051 0,3.88088 0.22796,4.76041 13.00044,50.1588 4.87425,17.325 9.38561,33.50572 10.02524,35.95715 0.814136,3.12025 1.399776,4.02008 1.952476,3 0.43423,-0.80143 6.05707,-18.7495 12.49519,-39.88459 12.38752,-40.66582 12.31295,-40.24591 8.6272,-48.57815 -2.25028,-5.08714 -5.2082,-7.27565 -11.2208,-8.30208 -3.43987,-0.58723 -4.37975,-1.17093 -4.37975,-2.72001 0,-1.90112 0.82149,-1.97749 22.75703,-2.11545 12.51637,-0.0787 22.98033,0.21817 23.25325,0.65976 0.99235,1.60566 -0.7793,3.98337 -2.96805,3.98337 -4.17414,0 -8.66562,2.19433 -9.61783,4.69884 -0.63816,1.67848 -0.44789,4.56135 0.60241,9.12728 2.88162,12.52718 24.82802,84.21922 25.54434,83.44542 1.5471,-1.67123 21.22127,-79.14282 21.68664,-85.39614 0.42709,-5.73892 0.21848,-6.89913 -1.56031,-8.67792 -1.12932,-1.12932 -4.09625,-2.35967 -6.59318,-2.73411 -4.60188,-0.69009 -7.27261,-2.57301 -6.17305,-4.35212 0.36716,-0.59408 8.72115,-0.90489 21.33609,-0.79381 16.95291,0.14928 20.73266,0.43615 20.73266,1.57357 0,1.56085 -0.8754,2.07997 -8,4.74409 -4.19663,1.56926 -5.35676,2.59231 -7.2204,6.36728 -2.70343,5.47603 -16.99512,52.91466 -31.88198,105.82633 -1.36726,4.85959 -1.89826,5.50521 -6.03155,7.33356 -2.49276,1.10266 -4.80815,1.72898 -5.14532,1.39181 -0.55726,-0.55726 -10.7886,-34.63129 -22.91168,-76.30408 -2.60001,-8.9375 -5.0832,-16.25 -5.51819,-16.25 -0.43498,0 -0.79088,0.55811 -0.79088,1.24024 0,0.68214 -4.4692,15.41964 -9.93155,32.75 -5.46235,17.33037 -11.56099,36.82338 -13.55253,43.31781 l -3.62098,11.80806 -4.530366,1.94194 c -5.35712,2.29633 -5.30847,2.29058 -5.85354,0.69195 z"
     inkscape:label="W" />
  <path
     style="fill:#ffffff;fill-opacity:1;stroke:#007c00;stroke-width:0.13207223;stroke-miterlimit:4;stroke-dasharray:0.26414445, 0.26414444999999998;stroke-dashoffset:0;stroke-opacity:1"
     d="m 198.78096,205.98592 c -13.44609,-14.30211 -24.65514,-26.23559 -24.90897,-26.51884 l -0.46153,-0.51499 -16.9446,-0.1147 c -9.31953,-0.0631 -27.03224,-0.1773 -39.36157,-0.25383 -64.791708,-0.4021 -89.06408,-0.73174 -97.909446,-1.3297 -3.008305,-0.20337 -3.474985,-0.29815 -4.372869,-0.88822 -2.582159,-1.69691 -5.9802489,-5.52019 -7.3495085,-8.26913 -0.4706109,-0.9448 -0.5399947,-1.21321 -0.664714,-2.57136 C 6.5936638,163.1938 6.427514,158.24232 6.24359,148.71242 6.0032481,136.25925 6.0028003,35.52624 6.243056,28.594405 6.5580392,19.50654 6.8255498,17.629909 8.1524704,15.199538 10.016389,11.785607 12.015224,9.6968444 14.803076,8.2497174 16.791718,7.2174471 17.746835,6.9237252 19.615376,6.7698183 29.089306,5.989475 67.881274,5.5632265 129.43362,5.5631288 c 61.43258,-9.74e-5 100.33094,0.4277635 109.84319,1.2082156 1.80709,0.1482661 3.06353,0.5491992 4.94492,1.5779335 2.08497,1.1400467 3.80622,2.7383391 5.2221,4.8490601 1.88547,2.810755 2.44848,4.437946 2.74556,7.935105 0.49196,5.791131 0.6608,21.721628 0.66312,62.569739 0.003,49.893268 -0.30474,77.677188 -0.91363,82.526348 -0.26268,2.09202 -2.47717,5.38146 -5.27765,7.83953 -2.28718,2.00752 -4.09877,3.00294 -6.39869,3.51587 -2.77335,0.61852 -4.59207,0.7591 -10.71074,0.82791 l -5.70314,0.0641 -0.004,2.65572 c -0.009,5.72995 -0.50308,50.74395 -0.55791,50.79879 -0.0321,0.0321 -11.05965,-11.64343 -24.50575,-25.94555 z M 93.82604,156.04023 c 0.582097,-0.21243 2.625564,-1.0539 4.541037,-1.86993 l 3.482683,-1.48368 1.73981,-5.67931 c 2.56321,-8.36711 5.46165,-17.68632 9.5587,-30.73358 11.6179,-36.997735 15.27262,-48.896948 15.75484,-51.295317 0.0875,-0.435153 0.24402,-0.9247 0.34783,-1.087883 0.43107,-0.677546 0.61079,-0.38309 1.83016,2.998428 1.36998,3.799176 2.45552,7.336255 6.41493,20.902026 9.97216,34.166726 18.86987,63.812636 20.31282,67.679486 0.25508,0.68358 0.26527,0.69229 0.8097,0.69229 1.05541,0 3.28857,-0.76318 5.83753,-1.99496 2.29055,-1.10691 3.18574,-1.97383 3.93816,-3.81378 0.19127,-0.46773 1.12219,-3.58001 2.06872,-6.91619 16.06849,-56.636043 28.19699,-96.705817 30.93288,-102.19504 0.72342,-1.451442 1.82685,-3.030077 2.57799,-3.688233 0.96785,-0.848036 2.49692,-1.599966 5.90949,-2.906021 5.18515,-1.984453 6.40908,-2.719368 6.54557,-3.930328 0.0582,-0.516193 0.0267,-0.617541 -0.24731,-0.797105 -1.24819,-0.817842 -7.99441,-1.134679 -24.17822,-1.135532 -11.33134,-6.6e-4 -16.77768,0.224878 -17.55949,0.726956 -0.66518,0.427176 -0.49014,1.592117 0.35379,2.354559 1.03617,0.936121 2.74881,1.601382 5.44999,2.117001 3.24376,0.619192 5.56461,1.599071 6.88462,2.906743 1.30677,1.294542 1.64199,2.289875 1.63833,4.864451 -0.003,2.126047 -0.20779,4.258036 -0.59669,6.212602 -3.17016,15.93314 -18.86559,77.317497 -21.07258,82.414187 l -0.1708,0.39443 -0.43178,-1.11968 c -2.70579,-7.01662 -15.21689,-47.464741 -21.6169,-69.887058 -3.6361,-12.738991 -4.28043,-15.582758 -4.28745,-18.922565 -0.005,-2.507296 0.29381,-3.237421 1.881,-4.592141 1.72884,-1.475614 4.43017,-2.430377 7.66261,-2.708268 1.37635,-0.118326 1.98278,-0.342954 2.62744,-0.97323 0.61791,-0.604121 0.93126,-1.301458 0.93126,-2.072477 0,-0.838144 -0.26243,-1.123982 -1.13424,-1.235455 -2.5477,-0.325761 -7.41126,-0.41725 -21.41461,-0.40283 -17.36143,0.01788 -21.18253,0.149455 -22.91297,0.788993 -0.68381,0.252721 -0.82279,0.488681 -0.82216,1.395794 0.001,1.503768 0.73191,1.967395 4.21918,2.676507 3.60025,0.732088 5.58422,1.486984 7.21982,2.747121 1.83021,1.41007 2.91274,2.948872 4.38357,6.231205 1.57401,3.512577 1.93022,5.076715 1.80894,7.943074 -0.21108,4.988749 -1.87194,11.029111 -13.1685,47.892456 -6.56424,21.420644 -9.85375,31.744334 -10.23708,32.127654 -0.19449,0.19449 -0.23394,0.18603 -0.48276,-0.10358 -0.38511,-0.44825 -0.80236,-1.762 -2.318313,-7.29947 -1.309118,-4.78194 -5.321374,-19.13434 -12.588764,-45.031748 -8.662484,-30.868843 -9.195399,-32.972799 -9.218472,-36.394621 -0.01446,-2.144351 0.130988,-2.947647 0.745812,-4.119054 1.031049,-1.964427 3.078685,-3.029968 7.166881,-3.729471 1.080341,-0.184851 2.320291,-0.431795 2.755444,-0.548767 1.064108,-0.286036 2.604482,-0.996592 3.22379,-1.487092 1.071294,-0.848481 1.161541,-2.238952 0.162341,-2.501258 -1.812456,-0.475798 -10.430591,-0.718135 -25.605311,-0.720003 -14.704177,-0.0018 -21.435874,0.19076 -22.974494,0.657223 -0.307742,0.0933 -0.553124,0.967483 -0.440332,1.568713 0.182341,0.971964 1.652621,2.123468 3.346392,2.620849 0.385128,0.113093 1.496192,0.357564 2.469028,0.543265 2.242333,0.428032 3.304228,0.754564 4.544814,1.397532 3.835874,1.988044 5.95751,5.996379 10.033473,18.955893 2.976052,9.462349 10.807648,36.236545 19.041029,65.096339 5.066372,17.75872 6.825707,24.08568 8.360214,30.06512 1.705373,6.64525 1.75983,6.79102 2.53689,6.79102 0.204248,0 0.84762,-0.17381 1.429718,-0.38626 z"
     id="path4534"
     inkscape:connector-curvature="0"
     inkscape:label="Fill" />
</svg>
