<?xml version="1.0" encoding="UTF-8" standalone="no"?>
<svg
   viewBox="0 0 258.9952 246.56894"
   height="246.56894"
   width="258.99521"
   id="svg2"
   version="1.1"
   sodipodi:docname="wikdict.svg"
   inkscape:version="1.1 (c68e22c387, 2021-05-23)"
   xmlns:inkscape="http://www.inkscape.org/namespaces/inkscape"
   xmlns:sodipodi="http://sodipodi.sourceforge.net/DTD/sodipodi-0.dtd"
   xmlns="http://www.w3.org/2000/svg"
   xmlns:svg="http://www.w3.org/2000/svg"
   xmlns:rdf="http://www.w3.org/1999/02/22-rdf-syntax-ns#"
   xmlns:cc="http://creativecommons.org/ns#"
   xmlns:dc="http://purl.org/dc/elements/1.1/">
  <sodipodi:namedview
     pagecolor="#ffffff"
     bordercolor="#666666"
     borderopacity="1"
     objecttolerance="10"
     gridtolerance="10"
     guidetolerance="10"
     inkscape:pageopacity="0"
     inkscape:pageshadow="2"
     inkscape:window-width="1920"
     inkscape:window-height="1022"
     id="namedview6"
     showgrid="false"
     inkscape:pagecheckerboard="true"
     inkscape:zoom="3.1796381"
     inkscape:cx="129.41724"
     inkscape:cy="123.28447"
     inkscape:window-x="0"
     inkscape:window-y="0"
     inkscape:window-maximized="1"
     inkscape:current-layer="svg2"
     width="258.81451px"
     fit-margin-top="0"
     fit-margin-left="0"
     fit-margin-right="0"
     fit-margin-bottom="0" />
  <metadata
     id="metadata8">
    <rdf:RDF>
      <cc:Work
         rdf:about="">
        <dc:format>image/svg+xml</dc:format>
        <dc:type
           rdf:resource="http://purl.org/dc/dcmitype/StillImage" />
      </cc:Work>
    </rdf:RDF>
  </metadata>
  <defs
     id="defs5891" />
  <path
     id="rect4672"
     style="overflow:visible;opacity:1;fill:#ffffff;stroke:#000000;stroke-width:6.26667"
     d="m 21.586465,3.1333351 c -10.2228,0 -18.4531299,8.2303269 -18.4531299,18.4531249 v 141.32032 c 0,10.2228 8.2303299,18.45313 18.4531299,18.45313 H 171.7642 l 54.57422,57.36914 v -57.36914 h 11.07031 c 10.2228,-1e-5 18.45313,-8.23033 18.45313,-18.45313 V 21.58646 c 0,-10.222799 -8.23033,-18.4531249 -18.45313,-18.4531249 z"
     inkscape:label="speech bubble" />
  <path
     id="path817"
     style="fill:#000000"
     d="m 91.676154,155.32468 c -0.2344,-0.6875 -1.15005,-4.175 -2.03477,-7.75 -1.94495,-7.85924 -18.83479,-66.621367 -25.14741,-87.491387 -6.6959,-22.13717 -8.3652,-24.6951 -17.01712,-26.07602 -3.88649,-0.62031 -5.9856,-2.53324 -4.83057,-4.40212 0.70846,-1.1463 48.3942,-1.04117 49.10459,0.10826 1.09689,1.77481 -1.595,3.59068 -6.27354,4.23195 -5.95684,0.81647 -8.31221,2.93333 -8.31221,7.47051 0,3.88088 0.22796,4.76041 13.00044,50.1588 4.87425,17.325007 9.38561,33.505727 10.025236,35.957157 0.81414,3.12025 1.39978,4.02008 1.95248,3 0.43423,-0.80143 6.05707,-18.7495 12.49519,-39.884597 12.38752,-40.66582 12.31295,-40.24591 8.6272,-48.57815 -2.25028,-5.08714 -5.2082,-7.27565 -11.2208,-8.30208 -3.43987,-0.58723 -4.37975,-1.17093 -4.37975,-2.72001 0,-1.90112 0.82149,-1.97749 22.75703,-2.11545 12.51637,-0.0787 22.98033,0.21817 23.25325,0.65976 0.99235,1.60566 -0.7793,3.98337 -2.96805,3.98337 -4.17414,0 -8.66562,2.19433 -9.61783,4.69884 -0.63816,1.67848 -0.44789,4.56135 0.60241,9.12728 2.88162,12.52718 24.82802,84.219227 25.54434,83.445427 1.5471,-1.67123 21.22127,-79.142827 21.68664,-85.396147 0.42709,-5.73892 0.21848,-6.89913 -1.56031,-8.67792 -1.12932,-1.12932 -4.09625,-2.35967 -6.59318,-2.73411 -4.60188,-0.69009 -7.27261,-2.57301 -6.17305,-4.35212 0.36716,-0.59408 8.72115,-0.90489 21.33609,-0.79381 16.95291,0.14928 20.73266,0.43615 20.73266,1.57357 0,1.56085 -0.8754,2.07997 -8,4.74409 -4.19663,1.56926 -5.35676,2.59231 -7.2204,6.36728 -2.70343,5.47603 -16.99512,52.91466 -31.88198,105.826337 -1.36726,4.85959 -1.89826,5.50521 -6.03155,7.33356 -2.49276,1.10266 -4.80815,1.72898 -5.14532,1.39181 -0.55726,-0.55726 -10.7886,-34.63129 -22.91168,-76.304087 -2.60001,-8.9375 -5.0832,-16.25 -5.51819,-16.25 -0.43498,0 -0.79088,0.55811 -0.79088,1.24024 0,0.68214 -4.4692,15.41964 -9.93155,32.75 -5.46235,17.330377 -11.56099,36.823387 -13.55253,43.317817 l -3.62098,11.80806 -4.530366,1.94194 c -5.35712,2.29633 -5.30847,2.29058 -5.85354,0.69195 z"
     inkscape:label="W" />
</svg>
